<?xml version="1.0" encoding="UTF-8" standalone="no"?>
<!-- Created with Inkscape (http://www.inkscape.org/) -->

<svg
   width="84.666664mm"
   height="84.666672mm"
   viewBox="0 0 84.666664 84.666672"
   version="1.1"
   id="svg1"
   xmlns="http://www.w3.org/2000/svg"
   xmlnsSvg="http://www.w3.org/2000/svg">
  <defs
     id="defs1" />
  <g
     id="layer1"
     transform="translate(-172.50755,-629.67924)">
<!--     <circle
       style="fill:#999999;stroke:#00334d;stroke-width:0.2;stroke-linejoin:round;stroke-dasharray:none;stroke-opacity:1"
       id="path128"
       cx="214.84088"
       cy="672.01251"
       r="42.333332" /> -->
<!--     <rect
       style="fill:#2d2d2d;stroke:#00334d;stroke-width:0.247534;stroke-linejoin:round;stroke-dasharray:none;stroke-opacity:1"
       id="rect128"
       width="104.96141"
       height="104.61815"
       x="162.36018"
       y="619.70349" /> -->
    <g
       id="g127"
       transform="matrix(1.1058542,0,0,1.1058542,-155.40784,317.1601)">
      <path
         style="fill:#ffffff;stroke-width:1.75146"
         d="m 333.04576,330.88478 -1.23507,7.00009 c -0.19552,1.10899 -0.70077,2.13895 -1.41128,3.00033 h 12.8819 c 1.65685,0 3.23738,-1.34348 3.5295,-3.00033 l 0.70487,-3.99976 c 0.29212,-1.65685 -0.8138,-3.00033 -2.47065,-3.00033 z"
         id="path124" />
      <path
         style="fill:#ffffff;stroke-width:1.75146"
         d="m 316.33412,300.88506 c -1.65687,3e-5 -3.23686,1.34295 -3.52898,2.99981 l -5.99447,34 c -0.29213,1.65685 0.8138,3.00033 2.47065,3.00033 h 7.88324 c -0.4071,-0.86138 -0.54951,-1.89134 -0.35398,-3.00033 l 3.34966,-18.99988 c 0.004,-0.0248 0.009,-0.0497 0.014,-0.0744 l 2.63084,-14.92571 c 0.29212,-1.65684 -0.8138,-2.99985 -2.47065,-2.99981 z"
         id="path125" />
      <path
         d="m 328.83413,300.88609 c -1.6568,-4e-5 -3.23676,1.34301 -3.52898,2.99982 l -0.70487,3.99975 c -0.29231,1.65685 0.81384,3.00014 2.47065,3.00034 h 31.5004 c 1.65683,-2.9e-4 3.23655,-1.34356 3.52847,-3.00034 l 0.70538,-3.99975 c 0.29202,-1.65681 -0.81435,-2.99986 -2.47116,-2.99982 z"
         style="fill:#ffffff;stroke-width:0.3352"
         id="path126" />
      <path
         d="m 326.18933,315.88569 a 2.7471671,3.2761047 47.518978 0 0 -3.52847,3.00034 l -3.35018,18.99987 a 2.7471649,3.2761021 47.518978 0 0 2.47117,2.99982 h 3.99975 a 2.7471679,3.2761056 47.518978 0 0 3.52899,-2.99982 l 1.58698,-8.99997 a 2.7471679,3.2761056 47.518978 0 1 3.52899,-3.00033 h 16.49976 a 2.747166,3.2761034 47.518978 0 0 3.52899,-2.99982 l 0.70538,-3.99975 a 2.747166,3.2761034 47.518978 0 0 -2.47117,-3.00034 h -16.50028 z"
         style="fill:#ffffff;stroke-width:0.264999"
         id="path127" />
    </g>
  </g>
</svg>
